<svg width="22" height="20" viewBox="0 0 22 20" fill="none" xmlns="http://www.w3.org/2000/svg">
<path fill-rule="evenodd" clip-rule="evenodd" d="M6.348 2.237C6.615 0.927 7.781 0 9.116 0H12.384C13.719 0 14.884 0.927 15.152 2.237C15.1815 2.38125 15.2588 2.51137 15.3712 2.60642C15.4837 2.70147 15.6248 2.75591 15.772 2.761H15.805C17.208 2.823 18.286 2.995 19.186 3.586C19.753 3.958 20.241 4.436 20.621 4.995C21.094 5.689 21.302 6.487 21.402 7.451C21.5 8.394 21.5 9.575 21.5 11.071V11.156C21.5 12.652 21.5 13.834 21.402 14.776C21.302 15.74 21.094 16.538 20.621 17.233C20.2389 17.7916 19.7515 18.2702 19.186 18.642C18.483 19.103 17.676 19.307 16.698 19.404C15.74 19.5 14.539 19.5 13.013 19.5H8.487C6.961 19.5 5.76 19.5 4.802 19.404C3.824 19.307 3.017 19.104 2.314 18.642C1.74844 18.2699 1.26099 17.7909 0.879 17.232C0.406 16.538 0.198 15.74 0.098 14.776C5.21541e-08 13.834 0 12.652 0 11.156V11.071C0 9.575 5.21541e-08 8.394 0.098 7.451C0.198 6.487 0.406 5.689 0.879 4.995C1.26099 4.43607 1.74844 3.95711 2.314 3.585C3.214 2.995 4.292 2.823 5.695 2.762L5.712 2.761H5.728C5.87516 2.75591 6.01633 2.70147 6.12879 2.60642C6.24125 2.51137 6.31846 2.38125 6.348 2.237ZM9.116 1.5C8.476 1.5 7.939 1.943 7.818 2.536C7.623 3.496 6.771 4.252 5.746 4.261C4.398 4.321 3.676 4.486 3.136 4.84C2.73545 5.10393 2.39004 5.44322 2.119 5.839C1.843 6.244 1.677 6.763 1.589 7.606C1.501 8.462 1.5 9.566 1.5 11.114C1.5 12.662 1.5 13.765 1.59 14.621C1.677 15.464 1.843 15.983 2.12 16.389C2.388 16.783 2.733 17.123 3.137 17.388C3.554 17.661 4.088 17.826 4.951 17.912C5.825 17.999 6.951 18 8.528 18H12.972C14.548 18 15.674 18 16.549 17.912C17.412 17.826 17.946 17.662 18.363 17.388C18.767 17.123 19.113 16.783 19.381 16.388C19.657 15.983 19.823 15.464 19.911 14.621C19.999 13.765 20 12.661 20 11.114C20 9.567 20 8.462 19.91 7.606C19.823 6.763 19.657 6.244 19.38 5.839C19.1091 5.44286 18.7636 5.10322 18.363 4.839C17.825 4.486 17.103 4.321 15.753 4.261C14.729 4.251 13.877 3.497 13.682 2.536C13.618 2.24027 13.4539 1.97569 13.2174 1.78694C12.9809 1.59819 12.6866 1.49684 12.384 1.5H9.116ZM10.75 8.5C10.1533 8.5 9.58097 8.73705 9.15901 9.15901C8.73705 9.58097 8.5 10.1533 8.5 10.75C8.5 11.3467 8.73705 11.919 9.15901 12.341C9.58097 12.7629 10.1533 13 10.75 13C11.3467 13 11.919 12.7629 12.341 12.341C12.7629 11.919 13 11.3467 13 10.75C13 10.1533 12.7629 9.58097 12.341 9.15901C11.919 8.73705 11.3467 8.5 10.75 8.5ZM7 10.75C7 9.75544 7.39509 8.80161 8.09835 8.09835C8.80161 7.39509 9.75544 7 10.75 7C11.7446 7 12.6984 7.39509 13.4017 8.09835C14.1049 8.80161 14.5 9.75544 14.5 10.75C14.5 11.7446 14.1049 12.6984 13.4017 13.4017C12.6984 14.1049 11.7446 14.5 10.75 14.5C9.75544 14.5 8.80161 14.1049 8.09835 13.4017C7.39509 12.6984 7 11.7446 7 10.75ZM16 7.75C16 7.55109 16.079 7.36032 16.2197 7.21967C16.3603 7.07902 16.5511 7 16.75 7H17.75C17.9489 7 18.1397 7.07902 18.2803 7.21967C18.421 7.36032 18.5 7.55109 18.5 7.75C18.5 7.94891 18.421 8.13968 18.2803 8.28033C18.1397 8.42098 17.9489 8.5 17.75 8.5H16.75C16.5511 8.5 16.3603 8.42098 16.2197 8.28033C16.079 8.13968 16 7.94891 16 7.75Z" fill="white"/>
</svg>
