<svg width="22" height="22" viewBox="0 0 22 22" fill="none" xmlns="http://www.w3.org/2000/svg">
<path d="M15 21.0268V18.1568C15.0375 17.68 14.973 17.2006 14.811 16.7506C14.6489 16.3006 14.3929 15.8902 14.06 15.5468C17.2 15.1968 20.5 14.0068 20.5 8.54679C20.4997 7.15062 19.9626 5.80799 19 4.79679C19.4558 3.5753 19.4236 2.22514 18.91 1.02679C18.91 1.02679 17.73 0.676793 15 2.50679C12.7078 1.88658 10.2921 1.88658 7.99995 2.50679C5.26995 0.676793 4.08996 1.02679 4.08996 1.02679C3.57633 2.22514 3.5441 3.5753 3.99995 4.79679C3.03008 5.81549 2.49248 7.17026 2.49995 8.57679C2.49995 13.9968 5.79995 15.1868 8.93995 15.5768C8.61095 15.9168 8.35722 16.3222 8.19526 16.7667C8.03331 17.2112 7.96676 17.6849 7.99995 18.1568V21.0268" stroke="white" stroke-width="1.5" stroke-linecap="round" stroke-linejoin="round"/>
<path d="M8 19.0269C5 19.9999 2.5 19.0269 1 16.0269" stroke="white" stroke-width="1.5" stroke-linecap="round" stroke-linejoin="round"/>
</svg>
