<svg width="40" height="27" viewBox="0 0 40 27" fill="none" xmlns="http://www.w3.org/2000/svg">
<path d="M39.1766 9.13898L35.1875 1.17022C35.0774 0.949938 34.9251 0.753492 34.7391 0.592104C34.5531 0.430715 34.3371 0.307546 34.1035 0.22963C33.8699 0.151714 33.6232 0.120578 33.3776 0.137999C33.1319 0.15542 32.8922 0.221057 32.6719 0.331162L28.575 2.37179L20.1563 0.146787C20.0539 0.119623 19.9462 0.119623 19.8438 0.146787L11.425 2.37179L7.32813 0.323349C7.10786 0.213244 6.86806 0.147607 6.62242 0.130186C6.37679 0.112765 6.13012 0.143902 5.89652 0.221818C5.66292 0.299734 5.44695 0.422902 5.26095 0.584291C5.07496 0.745679 4.92257 0.942126 4.8125 1.16241L0.823441 9.13898C0.713336 9.35924 0.647699 9.59904 0.630278 9.84468C0.612857 10.0903 0.643993 10.337 0.721909 10.5706C0.799825 10.8042 0.922994 11.0202 1.08438 11.2061C1.24577 11.3921 1.44222 11.5445 1.6625 11.6546L5.92657 13.7874L14.6375 20.0093C14.701 20.0548 14.7726 20.0877 14.8484 20.1062L24.8484 22.6062C24.9525 22.6334 25.0618 22.6333 25.1658 22.606C25.2698 22.5786 25.365 22.5248 25.4422 22.4499L34.1203 13.7718L38.3391 11.6624C38.5594 11.5523 38.7558 11.4 38.9172 11.214C39.0786 11.028 39.2017 10.812 39.2797 10.5784C39.3576 10.3448 39.3887 10.0981 39.3713 9.85249C39.3539 9.60686 39.2882 9.36705 39.1781 9.14679L39.1766 9.13898ZM31.2078 14.9124L25.3953 10.2562C25.275 10.1596 25.1232 10.111 24.9691 10.1196C24.8151 10.1283 24.6697 10.1936 24.5609 10.303C21.5156 13.3718 18.1016 12.9765 15.9219 11.5843C15.8416 11.5328 15.774 11.464 15.724 11.3828C15.6739 11.3017 15.6428 11.2103 15.6328 11.1155C15.6221 11.0243 15.6322 10.9318 15.6622 10.8449C15.6923 10.7581 15.7415 10.6792 15.8063 10.614L22.7531 3.87491H28.3641L32.9891 13.1265L31.2078 14.9124ZM1.90782 10.1749C1.85785 10.0201 1.87018 9.85199 1.94219 9.70616L5.9375 1.72179C5.98877 1.6186 6.06756 1.5316 6.16517 1.47038C6.26278 1.40917 6.37542 1.37613 6.49063 1.37491C6.58729 1.3755 6.68249 1.3985 6.76875 1.4421L10.5188 3.3171L5.97032 12.4124L2.22032 10.5374C2.14697 10.5005 2.08161 10.4495 2.02799 10.3873C1.97437 10.3251 1.93354 10.2529 1.90782 10.1749ZM24.8078 21.3077L15.2672 18.9218L7.04844 13.0515L11.7891 3.56241L20 1.39679L24.6438 2.62491H22.5C22.3372 2.62476 22.1808 2.6881 22.0641 2.80147L14.9234 9.72804C14.7247 9.92677 14.5732 10.1676 14.4801 10.4328C14.387 10.698 14.3548 10.9807 14.3857 11.26C14.4166 11.5394 14.5099 11.8082 14.6587 12.0466C14.8075 12.285 15.008 12.4869 15.2453 12.6374C18.3516 14.6233 22.1406 14.1999 25.0359 11.5733L30.3125 15.8015L24.8078 21.3077ZM38.0891 10.1749C38.0634 10.2529 38.0225 10.3251 37.9689 10.3873C37.9153 10.4495 37.8499 10.5005 37.7766 10.5374L34.0266 12.4124L29.4813 3.3171L33.2313 1.4421C33.3788 1.37026 33.5487 1.35933 33.7042 1.41166C33.8597 1.46399 33.9884 1.57538 34.0625 1.72179L38.0516 9.69835C38.1278 9.84553 38.1424 10.017 38.0922 10.1749H38.0891ZM19.9906 25.9062C19.9559 26.0405 19.8775 26.1595 19.7678 26.2444C19.658 26.3292 19.5231 26.3752 19.3844 26.3749C19.3317 26.3753 19.2792 26.369 19.2281 26.3562L12.7156 24.7265C12.6393 24.7078 12.5672 24.675 12.5031 24.6296L8.3875 21.6874C8.25262 21.5911 8.16153 21.4451 8.13428 21.2816C8.10703 21.1181 8.14584 20.9504 8.24219 20.8155C8.33854 20.6806 8.48453 20.5896 8.64803 20.5623C8.81154 20.5351 8.97918 20.5739 9.11407 20.6702L13.1328 23.5405L19.5391 25.1421C19.6191 25.1623 19.6943 25.1982 19.7603 25.2476C19.8264 25.297 19.882 25.359 19.924 25.4301C19.966 25.5011 19.9935 25.5797 20.0049 25.6615C20.0164 25.7432 20.0115 25.8263 19.9906 25.9062Z" fill="#D794FF"/>
</svg>
