<svg width="93" height="131" viewBox="0 0 93 131" fill="none" xmlns="http://www.w3.org/2000/svg">
<path d="M46.5 62.2291C42.1626 62.2291 38.0029 60.5061 34.9359 57.4391C31.8689 54.3721 30.1458 50.2123 30.1458 45.8749C30.1458 41.5375 31.8689 37.3778 34.9359 34.3108C38.0029 31.2438 42.1626 29.5208 46.5 29.5208C50.8374 29.5208 54.9972 31.2438 58.0642 34.3108C61.1312 37.3778 62.8542 41.5375 62.8542 45.8749C62.8542 48.0226 62.4312 50.1492 61.6093 52.1334C60.7874 54.1176 59.5828 55.9204 58.0642 57.4391C56.5455 58.9577 54.7427 60.1623 52.7585 60.9842C50.7743 61.8061 48.6477 62.2291 46.5 62.2291ZM46.5 0.083252C34.3553 0.083252 22.708 4.90772 14.1204 13.4953C5.53281 22.0829 0.708344 33.7302 0.708344 45.8749C0.708344 80.2187 46.5 130.917 46.5 130.917C46.5 130.917 92.2917 80.2187 92.2917 45.8749C92.2917 33.7302 87.4672 22.0829 78.8796 13.4953C70.292 4.90772 58.6447 0.083252 46.5 0.083252Z" fill="#381359"/>
</svg>
