<svg width="18" height="22" viewBox="0 0 18 22" fill="none" xmlns="http://www.w3.org/2000/svg">
<path fill-rule="evenodd" clip-rule="evenodd" d="M9.593 21.2579L9.582 21.2599L9.511 21.2949L9.491 21.2989L9.477 21.2949L9.406 21.2599C9.39534 21.2566 9.38734 21.2583 9.382 21.2649L9.378 21.2749L9.361 21.7029L9.366 21.7229L9.376 21.7359L9.48 21.8099L9.495 21.8139L9.507 21.8099L9.611 21.7359L9.623 21.7199L9.627 21.7029L9.61 21.2759C9.60734 21.2653 9.60167 21.2593 9.593 21.2579ZM9.858 21.1449L9.845 21.1469L9.66 21.2399L9.65 21.2499L9.647 21.2609L9.665 21.6909L9.67 21.7029L9.678 21.7099L9.879 21.8029C9.89167 21.8063 9.90134 21.8036 9.908 21.7949L9.912 21.7809L9.878 21.1669C9.87467 21.1549 9.868 21.1476 9.858 21.1449ZM9.143 21.1469C9.1386 21.1443 9.13333 21.1434 9.1283 21.1445C9.12327 21.1456 9.11886 21.1487 9.116 21.1529L9.11 21.1669L9.076 21.7809C9.07667 21.7929 9.08234 21.8009 9.093 21.8049L9.108 21.8029L9.309 21.7099L9.319 21.7019L9.323 21.6909L9.34 21.2609L9.337 21.2489L9.327 21.2389L9.143 21.1469Z" fill="#381359"/>
<path fill-rule="evenodd" clip-rule="evenodd" d="M3 6C3 4.4087 3.63214 2.88258 4.75736 1.75736C5.88258 0.632141 7.4087 0 9 0C10.5913 0 12.1174 0.632141 13.2426 1.75736C14.3679 2.88258 15 4.4087 15 6H16C16.5304 6 17.0391 6.21071 17.4142 6.58579C17.7893 6.96086 18 7.46957 18 8V18C18 18.5304 17.7893 19.0391 17.4142 19.4142C17.0391 19.7893 16.5304 20 16 20H2C1.46957 20 0.960859 19.7893 0.585786 19.4142C0.210714 19.0391 0 18.5304 0 18V8C0 7.46957 0.210714 6.96086 0.585786 6.58579C0.960859 6.21071 1.46957 6 2 6H3ZM9 2C10.0609 2 11.0783 2.42143 11.8284 3.17157C12.5786 3.92172 13 4.93913 13 6H5C5 4.93913 5.42143 3.92172 6.17157 3.17157C6.92172 2.42143 7.93913 2 9 2ZM11 12C11 12.3511 10.9076 12.6959 10.732 13C10.5565 13.304 10.304 13.5565 10 13.732V15C10 15.2652 9.89464 15.5196 9.70711 15.7071C9.51957 15.8946 9.26522 16 9 16C8.73478 16 8.48043 15.8946 8.29289 15.7071C8.10536 15.5196 8 15.2652 8 15V13.732C7.61874 13.5119 7.32077 13.1721 7.15231 12.7653C6.98384 12.3586 6.95429 11.9076 7.06824 11.4824C7.18219 11.0571 7.43326 10.6813 7.78253 10.4133C8.1318 10.1453 8.55975 10 9 10C9.53043 10 10.0391 10.2107 10.4142 10.5858C10.7893 10.9609 11 11.4696 11 12Z" fill="#381359"/>
</svg>
