<svg width="93" height="92" viewBox="0 0 93 92" fill="none" xmlns="http://www.w3.org/2000/svg">
<path fill-rule="evenodd" clip-rule="evenodd" d="M67.8633 91.5133C61.2633 91.2704 42.5588 88.6854 22.9696 69.1008C3.38501 49.5116 0.804593 30.8116 0.557093 24.2071C0.190426 14.142 7.89959 4.3658 16.805 0.547885C17.8774 0.0848167 19.0518 -0.0914876 20.2129 0.0362728C21.3739 0.164033 22.4819 0.591468 23.4279 1.27663C30.7613 6.6208 35.8213 14.7058 40.1663 21.0629C41.1223 22.4596 41.531 24.1591 41.3146 25.8378C41.0983 27.5164 40.2719 29.0568 38.9929 30.1654L30.0508 36.8066C29.6188 37.1186 29.3147 37.5768 29.195 38.096C29.0753 38.6153 29.1482 39.1604 29.4 39.63C31.4258 43.3104 35.0283 48.792 39.1533 52.917C43.2783 57.042 49.0213 60.8829 52.9583 63.1379C53.452 63.415 54.033 63.4924 54.582 63.3543C55.131 63.2162 55.6062 62.8731 55.91 62.3954L61.7308 53.5358C62.801 52.1143 64.3797 51.1619 66.1362 50.8783C67.8928 50.5947 69.691 51.0017 71.1542 52.0141C77.6029 56.4783 85.1288 61.4512 90.6379 68.505C91.3787 69.4579 91.8499 70.5922 92.0023 71.7896C92.1547 72.9869 91.9827 74.2031 91.5042 75.3112C87.6679 84.2625 77.9604 91.8845 67.8633 91.5133Z" fill="#381359"/>
</svg>
