<svg width="92" height="92" viewBox="0 0 92 92" fill="none" xmlns="http://www.w3.org/2000/svg">
<path fill-rule="evenodd" clip-rule="evenodd" d="M67.3188 91.5175C60.7188 91.2745 42.0142 88.6895 22.4251 69.105C2.84048 49.5158 0.260067 30.8158 0.0125675 24.2112C-0.354099 14.1462 7.35507 4.36995 16.2605 0.552035C17.3329 0.0889671 18.5072 -0.0873372 19.6683 0.0404232C20.8294 0.168184 21.9374 0.595619 22.8834 1.28079C30.2167 6.62495 35.2767 14.71 39.6217 21.067C40.5777 22.4637 40.9865 24.1633 40.7701 25.8419C40.5537 27.5206 39.7273 29.061 38.4484 30.1695L29.5063 36.8108C29.0743 37.1228 28.7702 37.5809 28.6505 38.1002C28.5308 38.6194 28.6036 39.1645 28.8555 39.6341C30.8813 43.3145 34.4838 48.7962 38.6088 52.9212C42.7338 57.0462 48.4767 60.887 52.4138 63.142C52.9075 63.4191 53.4885 63.4966 54.0375 63.3585C54.5865 63.2204 55.0617 62.8772 55.3655 62.3995L61.1863 53.54C62.2565 52.1184 63.8351 51.1661 65.5917 50.8825C67.3483 50.5988 69.1465 51.0058 70.6096 52.0183C77.0584 56.4825 84.5842 61.4554 90.0934 68.5091C90.8342 69.462 91.3054 70.5964 91.4578 71.7937C91.6102 72.991 91.4381 74.2073 90.9596 75.3154C87.1234 84.2666 77.4159 91.8887 67.3188 91.5175Z" fill="#D2C5F8"/>
</svg>
