<svg width="130" height="129" viewBox="0 0 130 129" fill="none" xmlns="http://www.w3.org/2000/svg">
<path fill-rule="evenodd" clip-rule="evenodd" d="M58.7043 3.13226C60.4193 1.55041 62.6669 0.672119 65 0.672119C67.3331 0.672119 69.5807 1.55041 71.2957 3.13226L125.543 53.1637C128.403 55.8194 130 59.5894 130 63.443V115.072C130 118.766 128.533 122.308 125.92 124.921C123.308 127.533 119.766 129 116.071 129H13.9286C10.2345 129 6.6917 127.533 4.07958 124.921C1.46747 122.308 0 118.766 0 115.072L0 63.443C0 59.2273 1.65286 55.7637 4.45714 53.1637H4.46643L58.7043 3.13226ZM60.9607 49.4215C59.7294 49.4215 58.5484 49.9107 57.6777 50.7814C56.807 51.6521 56.3179 52.833 56.3179 54.0644V57.8251H73.6821V54.0644C73.6821 52.833 73.193 51.6521 72.3223 50.7814C71.4516 49.9107 70.2706 49.4215 69.0393 49.4215H60.9607ZM47.0321 54.0644V57.8251H45.3143C42.8516 57.8251 40.4897 58.8034 38.7483 60.5448C37.0069 62.2863 36.0286 64.6481 36.0286 67.1108V95.8501C36.0286 98.3128 37.0069 100.675 38.7483 102.416C40.4897 104.158 42.8516 105.136 45.3143 105.136H84.6671C87.1299 105.136 89.4917 104.158 91.2331 102.416C92.9745 100.675 93.9529 98.3128 93.9529 95.8501V67.1108C93.9529 64.6481 92.9745 62.2863 91.2331 60.5448C89.4917 58.8034 87.1299 57.8251 84.6671 57.8251H82.9771V54.0644C82.9771 50.3703 81.5097 46.8275 78.8976 44.2154C76.2854 41.6033 72.7427 40.1358 69.0486 40.1358H60.97C57.2759 40.1358 53.7331 41.6033 51.121 44.2154C48.5089 46.8275 47.0321 50.3703 47.0321 54.0644Z" fill="#381359"/>
</svg>
