<svg width="16" height="16" viewBox="0 0 16 16" fill="none" xmlns="http://www.w3.org/2000/svg">
<path d="M3.39248 10.7119C3.01997 10.7133 2.6562 10.8249 2.34709 11.0328C2.03797 11.2407 1.79736 11.5355 1.6556 11.88C1.51384 12.2245 1.4773 12.6032 1.55058 12.9685C1.62386 13.3337 1.80367 13.669 2.06734 13.9322C2.33101 14.1953 2.66672 14.3745 3.0321 14.447C3.39748 14.5196 3.77616 14.4823 4.12037 14.3399C4.46458 14.1974 4.75888 13.9562 4.96615 13.6467C5.17342 13.3372 5.28436 12.9732 5.28498 12.6007C5.28341 12.0996 5.0834 11.6195 4.72872 11.2655C4.37404 10.9115 3.89358 10.7125 3.39248 10.7119Z" fill="#D2C5F7"/>
<path d="M1.5 5.8335V8.53818C3.125 8.53818 4.68562 9.01912 5.83344 10.1666C6.98125 11.3141 7.45844 12.8716 7.45844 14.5001H10.1666C10.1666 9.76381 6.23969 5.8335 1.5 5.8335Z" fill="#D2C5F7"/>
<path d="M1.5 1.5V4.205C7.28906 4.205 11.7881 8.7075 11.7881 14.5H14.5C14.5 7.33313 8.67719 1.5 1.5 1.5Z" fill="#D2C5F7"/>
</svg>
