<svg width="20" height="19" viewBox="0 0 20 19" fill="none" xmlns="http://www.w3.org/2000/svg">
<path d="M14.5 0.5C17.3045 0.5 19.5 2.68674 19.5 5.5C19.5 7.22061 18.7289 8.82587 17.2695 10.6113C15.8047 12.4035 13.699 14.3154 11.1143 16.6592L11.1133 16.6602L10 17.6729L8.88672 16.6602L8.88574 16.6592C6.30104 14.3154 4.19531 12.4035 2.73047 10.6113C1.27109 8.82587 0.5 7.22061 0.5 5.5C0.5 2.68674 2.69555 0.5 5.5 0.5C7.08865 0.5 8.62159 1.24211 9.62012 2.40527L10 2.84766L10.3799 2.40527C11.3784 1.24211 12.9114 0.5 14.5 0.5ZM14.5 1.5C12.886 1.5 11.3094 2.46686 10.6074 3.86035H9.39258C8.69056 2.46686 7.11401 1.5 5.5 1.5C3.22386 1.5 1.5 3.22386 1.5 5.5C1.5 7.12949 2.38502 8.68101 3.78418 10.3174C4.83717 11.5489 6.22508 12.8773 7.85156 14.3701L9.55371 15.9199L9.66406 16.0195L10.0166 16.3408L10.3535 16.0039L10.4355 15.9209C12.8068 13.7738 14.8095 11.9595 16.2148 10.3174C17.6153 8.68096 18.5 7.12952 18.5 5.5C18.5 3.22386 16.7761 1.5 14.5 1.5Z" fill="black" stroke="#8A69FF"/>
</svg>
